<?xml version="1.0" standalone="no"?>
<!DOCTYPE svg PUBLIC "-//W3C//DTD SVG 20010904//EN"
 "http://www.w3.org/TR/2001/REC-SVG-20010904/DTD/svg10.dtd">
<svg version="1.0" xmlns="http://www.w3.org/2000/svg"
 width="571.000000pt" height="571.000000pt" viewBox="0 0 571.000000 571.000000"
 preserveAspectRatio="xMidYMid meet">
<metadata>
Created by potrace 1.14, written by Peter Selinger 2001-2017
</metadata>
<g transform="translate(0.000000,571.000000) scale(0.100000,-0.100000)"
fill="#000000" stroke="none">
<path d="M1415 5306 c-14 -24 -77 -132 -110 -191 -28 -49 -239 -415 -271 -470
-13 -22 -44 -76 -69 -120 -26 -44 -55 -96 -67 -115 -11 -19 -80 -138 -153
-265 -73 -126 -142 -246 -154 -265 -11 -19 -34 -60 -51 -90 -17 -30 -35 -62
-40 -70 -5 -8 -32 -53 -58 -100 -53 -92 -139 -240 -323 -559 -102 -177 -116
-207 -107 -225 6 -12 135 -235 286 -496 151 -261 286 -495 299 -519 14 -24 61
-104 104 -178 43 -75 79 -137 79 -140 0 -2 16 -29 35 -59 19 -30 35 -56 35
-58 0 -3 27 -50 60 -106 33 -56 60 -103 60 -105 0 -2 27 -49 60 -104 33 -56
60 -106 60 -111 0 -6 5 -10 10 -10 6 0 10 -4 10 -10 0 -5 27 -55 60 -111 33
-55 60 -102 60 -103 0 -2 44 -79 99 -172 l99 -169 1386 -2 c1136 -1 1390 -4
1403 -15 12 -9 15 -10 9 -1 -5 10 3 13 28 13 20 0 36 5 36 11 0 8 4 8 14 0 8
-7 22 -13 33 -15 16 -4 18 1 15 31 -3 20 -1 33 4 30 5 -3 10 11 11 31 4 51 6
61 27 104 10 21 23 35 28 32 6 -4 8 -1 6 7 -3 8 4 20 16 27 17 11 18 12 2 7
-16 -5 -17 -3 -6 10 7 8 16 12 21 10 4 -3 6 4 4 16 -3 15 2 23 16 26 14 4 17
8 8 13 -9 6 -6 14 10 31 11 12 21 29 21 36 0 7 7 13 16 13 13 0 14 -3 5 -14
-9 -10 -8 -15 4 -20 8 -3 22 -3 30 0 11 5 13 2 9 -10 -3 -9 -11 -13 -17 -9 -5
3 -7 1 -3 -5 3 -6 2 -13 -3 -16 -5 -4 -12 3 -16 14 -3 11 -11 20 -17 20 -6 0
-4 -10 5 -23 8 -12 21 -21 29 -20 7 2 14 -5 15 -15 1 -10 -5 -19 -13 -19 -8 0
-14 4 -14 9 0 4 -5 8 -10 8 -6 0 -3 -11 6 -25 13 -20 20 -23 34 -15 22 12 30
2 25 -26 -2 -10 -4 -19 -5 -19 -1 0 -3 -9 -4 -20 -9 -72 -18 -97 -41 -107 -14
-6 -22 -15 -18 -21 3 -5 9 -4 13 3 6 9 13 9 31 0 13 -7 21 -9 17 -5 -7 8 55
55 72 55 6 0 10 4 10 8 0 5 16 14 35 22 19 7 32 17 29 22 -3 4 0 8 7 8 7 0 23
10 36 22 13 12 23 16 23 10 0 -7 4 -12 10 -12 5 0 7 7 4 15 -4 10 3 18 19 24
14 5 27 16 30 23 4 10 8 10 16 -2 9 -12 11 -11 11 7 0 12 9 27 21 33 11 7 38
28 60 47 23 20 45 33 54 30 8 -4 17 -1 21 5 4 7 3 8 -4 4 -7 -4 -12 -2 -12 3
0 6 3 11 8 11 4 0 36 27 72 60 47 43 70 58 85 54 16 -4 17 -3 5 5 -13 10 -13
12 0 20 16 11 33 4 25 -10 -4 -5 -1 -9 4 -9 14 0 14 13 0 27 -12 12 -4 33 12
33 6 0 8 -4 4 -9 -3 -5 0 -13 6 -17 8 -5 9 -3 4 6 -6 9 -4 12 7 8 8 -4 15 -1
15 7 0 7 -6 11 -14 8 -20 -8 -16 5 11 32 26 26 35 23 30 -8 -1 -11 1 -16 4
-12 4 4 7 16 7 28 1 13 6 21 14 19 7 -1 10 2 6 8 -3 6 -12 8 -18 4 -7 -3 -1 4
12 15 12 12 27 18 32 15 5 -3 6 1 3 9 -7 20 50 81 70 74 10 -4 13 -1 9 8 -3 8
-10 12 -17 8 -10 -6 10 23 24 37 3 3 17 21 30 40 13 19 29 38 35 42 5 4 6 8 1
8 -5 0 -3 8 5 18 8 9 26 42 39 72 14 30 28 56 32 58 4 2 4 10 1 19 -4 11 -2
14 5 9 7 -4 10 -2 7 6 -8 21 11 73 25 70 11 -2 11 0 2 11 -13 15 -12 43 1 64
4 6 3 14 -3 18 -5 3 -10 11 -10 16 0 6 4 8 8 5 5 -3 9 1 9 9 0 8 -4 12 -9 9
-4 -3 -9 9 -9 25 -1 17 -2 34 -4 39 -1 4 -5 25 -10 47 -12 52 -10 46 -23 78
-7 16 -9 33 -6 39 4 6 2 8 -3 5 -13 -8 -26 20 -16 35 3 6 1 8 -5 4 -10 -6 -28
30 -24 47 1 4 -3 7 -9 7 -5 0 -7 4 -4 10 3 5 2 10 -2 10 -10 0 -49 62 -45 73
1 4 -3 7 -9 7 -5 0 -7 4 -4 10 3 5 1 10 -5 10 -13 0 -51 61 -44 72 3 4 -3 5
-12 1 -13 -5 -16 -3 -11 10 4 11 1 17 -8 17 -8 0 -15 5 -15 10 0 12 29 72 39
80 3 3 14 21 23 40 10 19 22 42 28 50 38 59 243 426 243 435 0 7 -119 218
-265 471 -146 252 -274 475 -285 494 -31 54 -350 606 -396 685 -23 39 -47 79
-53 90 -18 35 -284 495 -355 616 l-68 116 -1426 0 -1426 0 -14 -21z m3241
-4357 c0 -25 -1 -26 -24 -16 -21 10 -22 12 -8 22 9 7 14 14 11 17 -3 2 1 5 8
5 8 0 13 -12 13 -28z m-43 -36 c-6 -15 -4 -16 9 -5 13 11 18 11 24 0 4 -7 4
-10 -1 -6 -4 4 -13 4 -19 -2 -15 -11 -41 4 -32 19 11 18 26 13 19 -6z m33 -47
c1 -9 -2 -13 -7 -10 -6 3 -8 -5 -5 -20 4 -20 1 -24 -12 -19 -13 5 -15 4 -6 -8
14 -18 16 -57 3 -65 -6 -3 -7 7 -4 27 3 19 3 31 0 28 -19 -20 -12 -84 9 -72 8
5 8 3 0 -8 -6 -8 -10 -22 -9 -31 2 -11 -3 -16 -17 -15 -18 1 -18 2 -2 14 17
12 17 13 0 13 -9 0 -14 5 -11 10 4 6 11 7 17 4 7 -4 8 -2 4 5 -4 6 -12 8 -18
5 -8 -5 -9 -1 -4 12 13 34 11 39 -11 37 -13 -2 -23 2 -23 8 0 5 5 7 10 4 6 -3
10 -2 10 4 0 5 -9 13 -20 16 -11 4 -18 11 -15 16 4 5 13 5 24 -1 10 -5 22 -6
26 -2 5 4 5 -1 2 -10 -3 -10 -1 -20 5 -24 7 -4 8 -3 4 4 -4 7 -2 12 5 12 7 0
9 3 6 6 -3 4 -2 16 4 27 9 15 8 18 -3 12 -7 -3 -4 1 6 9 20 16 17 19 -26 19
-10 0 -18 4 -18 9 0 17 73 2 76 -16z m-45 -9 c-5 -5 -7 -17 -4 -26 4 -13 3
-14 -5 -1 -6 8 -8 18 -5 24 3 5 1 6 -5 2 -6 -4 -8 -14 -5 -24 6 -15 5 -15 -11
-3 -16 13 -16 16 -2 26 19 14 51 16 37 2z"/>
<path d="M4635 950 c-3 -5 -1 -10 4 -10 6 0 11 5 11 10 0 6 -2 10 -4 10 -3 0
-8 -4 -11 -10z"/>
<path d="M5494 2116 c1 -8 5 -18 8 -22 4 -3 5 1 4 10 -1 8 -5 18 -8 22 -4 3
-5 -1 -4 -10z"/>
<path d="M5550 2050 c0 -5 5 -10 11 -10 5 0 7 5 4 10 -3 6 -8 10 -11 10 -2 0
-4 -4 -4 -10z"/>
<path d="M5635 1801 c-3 -5 -2 -12 3 -15 5 -3 9 1 9 9 0 17 -3 19 -12 6z"/>
<path d="M5665 1750 c-3 -6 1 -7 9 -4 18 7 21 14 7 14 -6 0 -13 -4 -16 -10z"/>
<path d="M5646 1532 c-3 -5 1 -9 9 -9 8 0 12 4 9 9 -3 4 -7 8 -9 8 -2 0 -6 -4
-9 -8z"/>
<path d="M5556 1314 c1 -6 -3 -18 -9 -25 -7 -7 -2 -5 11 5 22 19 30 32 13 22
-5 -4 -11 -3 -14 1 -2 5 -3 3 -1 -3z"/>
<path d="M5509 1273 c-13 -16 -12 -17 4 -4 9 7 17 15 17 17 0 8 -8 3 -21 -13z"/>
<path d="M5460 1204 c0 -6 7 -19 16 -30 14 -18 14 -18 3 6 -14 31 -19 36 -19
24z"/>
<path d="M5415 1129 c-4 -6 -5 -12 -2 -15 2 -3 7 2 10 11 7 17 1 20 -8 4z"/>
<path d="M5344 1008 c-3 -4 5 -5 17 -3 30 6 36 14 9 12 -12 -1 -24 -5 -26 -9z"/>
<path d="M5326 968 c3 -5 10 -6 15 -3 13 9 11 12 -6 12 -8 0 -12 -4 -9 -9z"/>
<path d="M5266 929 c2 -4 13 -7 24 -6 23 2 17 10 -10 12 -10 1 -17 -2 -14 -6z"/>
<path d="M5190 883 c5 -2 8 -9 5 -13 -3 -5 -1 -11 4 -14 5 -4 8 2 7 11 -2 9
-8 18 -15 19 -6 1 -7 0 -1 -3z"/>
<path d="M5226 868 c3 -5 10 -6 15 -3 13 9 11 12 -6 12 -8 0 -12 -4 -9 -9z"/>
<path d="M5134 845 c-3 -8 -4 -20 -1 -27 3 -7 6 -3 6 10 1 15 5 21 13 16 7 -4
8 -3 4 4 -10 16 -15 15 -22 -3z"/>
<path d="M5070 790 c0 -5 5 -10 11 -10 5 0 7 5 4 10 -3 6 -8 10 -11 10 -2 0
-4 -4 -4 -10z"/>
<path d="M5005 760 c-3 -6 1 -7 9 -4 18 7 21 14 7 14 -6 0 -13 -4 -16 -10z"/>
<path d="M4513 714 c0 -17 2 -22 7 -13 5 6 6 18 3 26 -8 19 -10 16 -10 -13z"/>
<path d="M4990 730 c0 -5 5 -10 10 -10 6 0 10 5 10 10 0 6 -4 10 -10 10 -5 0
-10 -4 -10 -10z"/>
<path d="M4945 707 c-14 -11 -15 -16 -5 -22 9 -5 11 -4 6 3 -10 16 6 15 24 0
12 -11 12 -10 2 4 -10 13 -10 17 0 21 7 3 8 6 2 6 -5 1 -18 -5 -29 -12z"/>
<path d="M4993 695 c0 -8 4 -12 9 -9 5 3 6 10 3 15 -9 13 -12 11 -12 -6z"/>
<path d="M4922 674 c10 -10 20 -16 22 -13 3 3 -5 11 -17 18 -21 13 -21 12 -5
-5z"/>
<path d="M5109 673 c-13 -16 -12 -17 4 -4 16 13 21 21 13 21 -2 0 -10 -8 -17
-17z"/>
<path d="M4516 652 c13 -4 20 -14 18 -24 -1 -10 3 -21 8 -25 7 -4 8 -1 3 7 -5
9 -1 10 16 6 24 -7 24 -7 -1 8 -14 8 -23 18 -20 23 3 4 -6 9 -20 10 -22 2 -23
1 -4 -5z"/>
<path d="M4910 655 c0 -5 5 -17 10 -25 5 -8 10 -10 10 -5 0 6 -5 17 -10 25 -5
8 -10 11 -10 5z"/>
<path d="M4582 641 c-11 -7 -11 -9 0 -14 9 -3 15 1 15 9 0 8 -1 14 -1 14 -1 0
-7 -4 -14 -9z"/>
<path d="M4490 636 c0 -2 7 -7 16 -10 8 -3 12 -2 9 4 -6 10 -25 14 -25 6z"/>
<path d="M4950 629 c0 -5 5 -7 10 -4 6 3 10 8 10 11 0 2 -4 4 -10 4 -5 0 -10
-5 -10 -11z"/>
<path d="M4525 590 c10 -11 20 -20 23 -20 3 0 -3 9 -13 20 -10 11 -20 20 -23
20 -3 0 3 -9 13 -20z"/>
<path d="M4465 589 c-3 -4 2 -6 10 -5 21 3 28 13 10 13 -9 0 -18 -4 -20 -8z"/>
<path d="M4566 592 c-3 -5 1 -9 9 -9 8 0 12 4 9 9 -3 4 -7 8 -9 8 -2 0 -6 -4
-9 -8z"/>
<path d="M4787 581 c-4 -17 -3 -21 5 -13 5 5 8 16 6 23 -3 8 -7 3 -11 -10z"/>
<path d="M4890 590 c0 -5 5 -10 11 -10 5 0 7 5 4 10 -3 6 -8 10 -11 10 -2 0
-4 -4 -4 -10z"/>
<path d="M4511 563 c7 -12 15 -20 18 -17 3 2 -3 12 -13 22 -17 16 -18 16 -5
-5z"/>
<path d="M4399 558 c-6 -20 -6 -39 0 -42 4 -3 7 6 7 20 0 20 -4 32 -7 22z"/>
<path d="M4437 518 c19 -21 31 -25 14 -5 -6 8 -9 16 -6 19 3 2 -2 5 -10 5 -13
0 -13 -3 2 -19z"/>
<path d="M4476 508 c3 -5 10 -6 15 -3 13 9 11 12 -6 12 -8 0 -12 -4 -9 -9z"/>
<path d="M4525 510 c-3 -6 1 -7 9 -4 18 7 21 14 7 14 -6 0 -13 -4 -16 -10z"/>
<path d="M4387 489 c7 -7 15 -10 18 -7 3 3 -2 9 -12 12 -14 6 -15 5 -6 -5z"/>
<path d="M4645 490 c-3 -6 1 -7 9 -4 18 7 21 14 7 14 -6 0 -13 -4 -16 -10z"/>
<path d="M4376 408 c3 -5 10 -6 15 -3 13 9 11 12 -6 12 -8 0 -12 -4 -9 -9z"/>
</g>
</svg>
